<svg width="1440" height="345" viewBox="0 0 1440 345" fill="none" xmlns="http://www.w3.org/2000/svg">
<path fill-rule="evenodd" clip-rule="evenodd" d="M0 258.634L60 229.967C120 201.3 240 143.967 360 151.134C480 158.3 600 229.967 720 229.967C840 229.967 960 158.3 1080 108.134C1200 57.9669 1320 29.3002 1380 14.9669L1440 0.633545V344.634H1380C1320 344.634 1200 344.634 1080 344.634C960 344.634 840 344.634 720 344.634C600 344.634 480 344.634 360 344.634C240 344.634 120 344.634 60 344.634H0V258.634Z" fill="#FDC435" stroke="black"/>
</svg>
